<?xml version="1.0" encoding="UTF-8"?>
<svg version="1.1" xmlns="http://www.w3.org/2000/svg" width="177" height="192">
<path d="M0 0 C9.68618825 6.94957001 15.6618013 16.53869485 21 27 C21.65355469 25.62328125 21.65355469 25.62328125 22.3203125 24.21875 C28.29602436 11.81234 34.08556834 2.56063856 47.125 -3.4375 C54.88996524 -4.95673233 61.14048596 -4.01532529 68 0 C72.46639933 4.0140016 76.52199547 8.56843062 77.37109375 14.6640625 C77.56345892 23.24128602 76.0005706 29.64619627 70.09765625 36.0703125 C66.33182154 39.52533935 62.58903122 41.74478543 58 44 C59.55110474 44.02187378 59.55110474 44.02187378 61.13354492 44.04418945 C64.98236082 44.10230882 68.83059999 44.17954023 72.67895508 44.26245117 C74.34227108 44.29563655 76.00569796 44.32368834 77.66918945 44.34643555 C80.06509499 44.38009999 82.45999035 44.4324194 84.85546875 44.48828125 C85.96513252 44.49786613 85.96513252 44.49786613 87.09721375 44.50764465 C91.54214263 44.63327298 94.51592212 45.17117156 98 48 C100.89516273 52.26065063 100.36786744 56.96967163 100.375 61.9375 C100.39949219 62.83146484 100.42398438 63.72542969 100.44921875 64.64648438 C100.46771982 68.79997505 100.3751815 71.34129092 98.2890625 75.00390625 C94.04033439 78.70885516 90.18119128 79.24922321 84.64916992 79.22705078 C82.75777534 79.22682419 82.75777534 79.22682419 80.82817078 79.22659302 C79.46226848 79.21638136 78.09636781 79.2059494 76.73046875 79.1953125 C75.32514141 79.19157941 73.91981147 79.18873383 72.51448059 79.18673706 C68.82700332 79.17912389 65.13968518 79.15949553 61.45227051 79.1373291 C57.68499911 79.11682059 53.91770184 79.10772467 50.15039062 79.09765625 C42.76685477 79.07624725 35.38344974 79.04213954 28 79 C28 80.98 28 82.96 28 85 C48.46 85 68.92 85 90 85 C91.48740175 87.97480351 91.1560046 91.01360877 91.16113281 94.27612305 C91.16609772 95.02594955 91.17106262 95.77577606 91.17617798 96.54832458 C91.19081587 99.03613191 91.19760574 101.52387538 91.203125 104.01171875 C91.20887693 105.74087018 91.21463466 107.47002158 91.22039795 109.19917297 C91.23091381 112.82996925 91.23675204 116.46074336 91.24023438 120.09155273 C91.2457078 124.73412865 91.26970854 129.3764096 91.29820633 134.01889324 C91.31687602 137.59378398 91.3220407 141.16860445 91.32357025 144.74353981 C91.32658962 146.45428892 91.33459394 148.165037 91.34775543 149.87573814 C91.36490008 152.27635113 91.36291499 154.67625414 91.35644531 157.0769043 C91.3656601 157.77795288 91.37487488 158.47900146 91.3843689 159.20129395 C91.34201076 164.24424797 90.28705146 167.59696786 88 172 C83.24945197 176.40294696 79.89602894 177.21497975 73.59912109 177.55419922 C72.84362158 177.59630964 72.08812206 177.63842007 71.30972862 177.68180656 C62.34632866 178.14005419 53.38688585 178.1447057 44.4140625 178.1328125 C42.57815539 178.13348902 40.74224836 178.13446191 38.90634155 178.13571167 C35.08598973 178.13717305 31.26566154 178.13508543 27.4453125 178.13037109 C22.60604272 178.12468297 17.76682855 178.1279571 12.92756081 178.13394356 C9.14376424 178.1375987 5.35998032 178.13638801 1.57618332 178.13381577 C-0.20557283 178.13315968 -1.98733023 178.13392738 -3.76908493 178.13629532 C-9.51395472 178.14225714 -15.25599131 178.10048521 -21 178 C-21.86071358 177.98679466 -22.72142715 177.97358932 -23.60822296 177.95998383 C-26.19528144 177.91015034 -28.7797418 177.83065476 -31.36572266 177.74169922 C-32.53493035 177.7213219 -32.53493035 177.7213219 -33.72775841 177.70053291 C-38.86463466 177.47959006 -42.05817064 176.56847559 -46 173 C-49.60577872 167.8973325 -50.57240183 163.06425658 -50.37817383 156.85571289 C-50.37061066 156.0856189 -50.36304749 155.3155249 -50.35525513 154.52209473 C-50.325549 152.00488861 -50.26674878 149.48931402 -50.20703125 146.97265625 C-50.17963684 145.21531124 -50.15392125 143.45793934 -50.12980652 141.70054626 C-50.07540588 138.03301696 -50.00783218 134.36606861 -49.92944336 130.69897461 C-49.82882727 125.98903735 -49.75049239 121.27907978 -49.6805315 116.56859684 C-49.61314251 112.07815749 -49.53585252 107.58790741 -49.45703125 103.09765625 C-49.44256266 102.23768602 -49.42809406 101.3777158 -49.41318703 100.49168587 C-49.37049744 98.07381939 -49.32087935 95.65620557 -49.26879883 93.23852539 C-49.25073936 92.15470833 -49.25073936 92.15470833 -49.23231506 91.04899597 C-49.11494799 86.11494799 -49.11494799 86.11494799 -48 85 C-46.06693502 84.90603943 -44.13041162 84.88256483 -42.19506836 84.88647461 C-40.95385727 84.88655014 -39.71264618 84.88662567 -38.43382263 84.88670349 C-37.0691626 84.89181089 -35.70450298 84.8970269 -34.33984375 84.90234375 C-32.95121817 84.904208 -31.56259193 84.90563187 -30.17396545 84.90663147 C-26.51278885 84.91045613 -22.8516517 84.92028597 -19.19049072 84.93133545 C-15.45707737 84.94155068 -11.72365766 84.94612933 -7.99023438 84.95117188 C-0.66013823 84.96190829 6.66992536 84.97898409 14 85 C14 83.02 14 81.04 14 79 C13.21152679 79.00666183 12.42305359 79.01332367 11.61068726 79.02018738 C4.1662059 79.08039374 -3.27815676 79.12602261 -10.72281837 79.15543652 C-14.549856 79.17106708 -18.37669179 79.19225718 -22.20361328 79.22631836 C-25.8994583 79.25900562 -29.59510965 79.27687263 -33.2910881 79.28463173 C-34.69844993 79.29015851 -36.10580161 79.30095101 -37.5130806 79.31719017 C-39.48989706 79.33908635 -41.46690996 79.34022644 -43.44384766 79.34057617 C-45.12929184 79.35056892 -45.12929184 79.35056892 -46.8487854 79.36076355 C-51.31612505 78.84932478 -54.6938019 77.33380963 -57.84790039 74.11303711 C-59.99314639 70.17849501 -59.47036141 65.94501692 -59.4375 61.5625 C-59.45748047 60.62083984 -59.47746094 59.67917969 -59.49804688 58.70898438 C-59.49493793 54.30361092 -59.44236046 51.72031179 -57.09765625 47.90234375 C-53.29863293 44.457047 -49.83740628 44.78913575 -44.9296875 44.68359375 C-44.13345978 44.66281265 -43.33723206 44.64203156 -42.51687622 44.62062073 C-39.96967315 44.55515851 -37.42236575 44.49625585 -34.875 44.4375 C-33.14972873 44.3943116 -31.42446807 44.35069721 -29.69921875 44.30664062 C-25.46625315 44.19948055 -21.23318247 44.09820377 -17 44 C-18.01429077 43.41774658 -18.01429077 43.41774658 -19.04907227 42.82373047 C-19.94166748 42.30182129 -20.8342627 41.77991211 -21.75390625 41.2421875 C-22.6363501 40.73026855 -23.51879395 40.21834961 -24.42797852 39.69091797 C-30.86436221 35.45946154 -35.32792382 29.54653849 -37 22 C-37.90216578 15.0082152 -36.13939827 9.73000039 -32 4 C-22.32739708 -4.64133276 -11.2255779 -6.65657076 0 0 Z M-22 11 C-24.46996424 13.46996424 -24.32331778 14.33897333 -24.375 17.75 C-24.23318955 22.68500356 -23.50534065 25.32773836 -20 29 C-10.35376357 36.28389281 0.15907611 38.33580891 12 39 C8.27044576 28.0347668 3.42221248 16.23606502 -7 10 C-12.76400259 7.64796392 -16.66953457 7.35968214 -22 11 Z M42.375 14.0625 C35.70784603 21.30676525 31.9978822 29.72419978 29 39 C41.8110181 37.68604943 55.0253019 36.0996494 63.9375 25.75 C65.47541616 21.76951112 65.80713691 18.20320355 65 14 C62.64992425 10.68224599 61.00212475 9.35631102 57.1875 8 C51.18054564 8 46.757832 9.96992178 42.375 14.0625 Z " fill="#E1AE2B" transform="translate(69,9)"/>
<path d="M0 0 C20.46 0 40.92 0 62 0 C62.16043524 20.51342771 62.16043524 20.51342771 62.1953125 29.25976562 C62.21922091 35.22711417 62.2474998 41.19421713 62.30175781 47.16137695 C62.34522985 51.97244774 62.36914016 56.78325517 62.37950897 61.59450722 C62.3868979 63.42974303 62.4013268 65.26496447 62.42292023 67.10008812 C62.45197257 69.67145268 62.45595529 72.24173005 62.45410156 74.81323242 C62.47567322 75.9504348 62.47567322 75.9504348 62.49768066 77.11061096 C62.4689736 80.79252894 62.11323888 82.82454329 60.09661865 85.94917297 C56.86434534 89.11085116 55.04876288 89.12342772 50.63232422 89.11352539 C48.92725708 89.11334412 48.92725708 89.11334412 47.18774414 89.11315918 C45.98883545 89.10804321 44.78992676 89.10292725 43.5546875 89.09765625 C42.45584229 89.09664917 41.35699707 89.09564209 40.22485352 89.09460449 C36.10822511 89.08936056 31.99161154 89.07539937 27.875 89.0625 C14.076875 89.0315625 14.076875 89.0315625 0 89 C0 59.63 0 30.26 0 0 Z " fill="#C31D36" transform="translate(96,96)"/>
<path d="M0 0 C20.46 0 40.92 0 62 0 C62 29.37 62 58.74 62 89 C53.275625 89.020625 44.55125 89.04125 35.5625 89.0625 C32.80463135 89.071604 30.0467627 89.08070801 27.20532227 89.09008789 C25.03401742 89.09300684 22.86271204 89.09555545 20.69140625 89.09765625 C19.55215698 89.10277222 18.41290771 89.10788818 17.23913574 89.11315918 C16.16321167 89.11328003 15.0872876 89.11340088 13.97875977 89.11352539 C13.03944107 89.115746 12.10012238 89.11796661 11.13233948 89.12025452 C9 89 9 89 8 88 C7.175 87.835 6.35 87.67 5.5 87.5 C3 87 3 87 2 86 C1.95919217 84.00041636 1.95745644 81.99954746 2 80 C1.34 80 0.68 80 0 80 C0 53.6 0 27.2 0 0 Z " fill="#C31C36" transform="translate(21,96)"/>
<path d="M0 0 C3.337104 0.00867038 6.67257858 -0.02064291 10.00952148 -0.05200195 C12.14298452 -0.05361052 14.27645057 -0.05304307 16.40991211 -0.05004883 C17.89726112 -0.0668998 17.89726112 -0.0668998 19.41465759 -0.08409119 C26.22534595 -0.01459855 26.22534595 -0.01459855 29.44140625 2.35205078 C32.50139625 6.89673204 32.10719842 10.90229846 32.16381836 16.25854492 C32.20732422 17.61302734 32.20732422 17.61302734 32.25170898 18.99487305 C32.29170886 23.18255253 32.24039704 25.7595926 30.14428711 29.45776367 C25.83580442 33.19373929 22.00498215 33.69167932 16.40869141 33.58129883 C15.12774094 33.56112701 13.84679047 33.5409552 12.52702332 33.52017212 C11.1390227 33.48787397 9.75102738 33.45534708 8.36303711 33.42260742 C6.93530385 33.39642031 5.50755341 33.37115491 4.07978821 33.34677124 C0.3329789 33.28031573 -3.41346647 33.20138152 -7.15997314 33.11981201 C-11.66110398 33.02442428 -16.16253464 32.94459818 -20.66391754 32.8621521 C-27.4924754 32.73534508 -34.32035494 32.58882429 -41.14868164 32.44604492 C-41.14868164 22.87604492 -41.14868164 13.30604492 -41.14868164 3.44604492 C-27.29764718 0.86735851 -14.07826005 -0.0559457 0 0 Z " fill="#C31F38" transform="translate(137.148681640625,54.553955078125)"/>
<path d="M0 0 C6.25812664 -0.05004653 12.51613263 -0.08602039 18.77441406 -0.10986328 C20.89617954 -0.1198201 23.01793167 -0.13339042 25.13964844 -0.15087891 C54.83238243 -0.38920586 54.83238243 -0.38920586 65 3 C65 12.24 65 21.48 65 31 C56.07262614 31.11296513 47.14572698 31.20469449 38.21780014 31.25906086 C34.07217607 31.28515421 29.92706632 31.32054618 25.78173828 31.37719727 C21.78112994 31.43152836 17.78101624 31.46142251 13.78006744 31.47438622 C12.25377871 31.48362431 10.72751703 31.50166473 9.2014389 31.52865028 C7.06305989 31.56495893 4.92672365 31.56994515 2.78808594 31.56762695 C1.5711908 31.57873001 0.35429565 31.58983307 -0.8994751 31.60127258 C-4 31 -4 31 -6.39389038 28.61750793 C-8.14048237 25.77105316 -8.49343219 24.32324176 -8.4609375 21.0234375 C-8.45513672 19.64671875 -8.45513672 19.64671875 -8.44921875 18.2421875 C-8.42472656 17.29601562 -8.40023438 16.34984375 -8.375 15.375 C-8.37371094 14.42109375 -8.37242188 13.4671875 -8.37109375 12.484375 C-8.28157529 5.42236293 -8.28157529 5.42236293 -6 2 C-2.875 1.3125 -2.875 1.3125 0 1 C0 0.67 0 0.34 0 0 Z " fill="#C11D35" transform="translate(18,55)"/>
<path d="M0 0 C4.46639933 4.0140016 8.52199547 8.56843062 9.37109375 14.6640625 C9.56345892 23.24128602 8.0005706 29.64619627 2.09765625 36.0703125 C-1.8055741 39.65139524 -5.12353614 41.56176807 -10 44 C1.55 44.33 13.1 44.66 25 45 C25 45.33 25 45.66 25 46 C24.44448959 46.00808685 23.88897919 46.01617371 23.31663513 46.02450562 C17.45868614 46.11153574 11.6010381 46.21106267 5.7434082 46.31738281 C3.56637688 46.35532531 1.38929023 46.39023399 -0.7878418 46.421875 C-12.02423993 46.58715413 -23.07587095 46.80722386 -34.18725586 48.58447266 C-37 49 -37 49 -41 49 C-41 58.24 -41 67.48 -41 77 C-41.33 77 -41.66 77 -42 77 C-42.19235797 71.92836426 -42.37106479 66.8565011 -42.53710938 61.78393555 C-42.59552576 60.0582183 -42.65767766 58.3326233 -42.72363281 56.60717773 C-42.81776434 54.12766782 -42.89847386 51.6480293 -42.9765625 49.16796875 C-43.02485703 48.01001045 -43.02485703 48.01001045 -43.0741272 46.82865906 C-43.18216648 42.96958553 -43.19852515 41.29778773 -41 38 C-40.7525 36.453125 -40.7525 36.453125 -40.5 34.875 C-40.2525 33.451875 -40.2525 33.451875 -40 32 C-39.01 31.505 -39.01 31.505 -38 31 C-37.31527335 29.11235097 -37.31527335 29.11235097 -36.875 26.9375 C-36.70742187 26.20402344 -36.53984375 25.47054687 -36.3671875 24.71484375 C-36.24601562 24.14894531 -36.12484375 23.58304688 -36 23 C-35.34 23 -34.68 23 -34 23 C-33.67 22.34 -33.34 21.68 -33 21 C-32.34 20.34 -31.68 19.68 -31 19 C-31 17.68 -31 16.36 -31 15 C-31.66 15.33 -32.32 15.66 -33 16 C-32.625 14.0625 -32.625 14.0625 -32 12 C-31.34 11.67 -30.68 11.34 -30 11 C-29.34444881 8.47266765 -29.34444881 8.47266765 -29 6 C-33.11897728 9.13400445 -35.33129895 10.99389686 -37 16 C-37.66 16.33 -38.32 16.66 -39 17 C-39.65213292 19.02463255 -39.65213292 19.02463255 -40 21 C-39.34 21.33 -38.68 21.66 -38 22 C-39.32 22 -40.64 22 -42 22 C-42.33 23.65 -42.66 25.3 -43 27 C-43.99 27 -44.98 27 -46 27 C-45.4100688 22.72103235 -43.88902648 19.69592455 -41.6875 16 C-40.79611328 14.4840625 -40.79611328 14.4840625 -39.88671875 12.9375 C-35.03222691 5.37936778 -29.05541091 0.32548902 -20.875 -3.4375 C-13.11003476 -4.95673233 -6.85951404 -4.01532529 0 0 Z M-25.625 14.0625 C-32.29215397 21.30676525 -36.0021178 29.72419978 -39 39 C-26.1889819 37.68604943 -12.9746981 36.0996494 -4.0625 25.75 C-2.52458384 21.76951112 -2.19286309 18.20320355 -3 14 C-5.35007575 10.68224599 -6.99787525 9.35631102 -10.8125 8 C-16.81945436 8 -21.242168 9.96992178 -25.625 14.0625 Z " fill="#E1B932" transform="translate(137,9)"/>
<path d="M0 0 C8.90750799 6.39088863 14.74003213 15.00411659 19.73828125 24.6171875 C21.03193772 27.15716755 21.03193772 27.15716755 23 30 C22.01 30.33 21.02 30.66 20 31 C17.4375 29.6875 17.4375 29.6875 15 27 C13.98970247 23.70622388 13.436453 20.41345334 13 17 C11.35 17.33 9.7 17.66 8 18 C7.34 19.98 6.68 21.96 6 24 C6.99 24.33 7.98 24.66 9 25 C10.62323754 28.75907641 11.23994929 31.92086213 11 36 C9.11626808 33.17440212 7.79745062 30.45035413 6.375 27.375 C2.79385015 20.20400819 -1.46827286 13.13349266 -9.125 9.875 C-13.0286821 8.9935234 -15.21245451 8.79487189 -19 10 C-21.2072358 11.48800372 -21.2072358 11.48800372 -23 13 C-23.66 13 -24.32 13 -25 13 C-25.33 16.3 -25.66 19.6 -26 23 C-26.66 23 -27.32 23 -28 23 C-28 23.99 -28 24.98 -28 26 C-28.99 25.67 -29.98 25.34 -31 25 C-31.66 25.66 -32.32 26.32 -33 27 C-35.57426161 20.48863239 -35.50154302 13.81735049 -34 7 C-31.64535655 3.37986536 -29.29983924 1.2540248 -25.5 -0.75 C-24.7471875 -1.15734375 -23.994375 -1.5646875 -23.21875 -1.984375 C-15.04841586 -5.72431668 -7.52003883 -4.4592511 0 0 Z " fill="#E0AF11" transform="translate(69,9)"/>
<path d="M0 0 C0.84611197 2.6440999 0.98877428 4.61741467 0.9375 7.4375 C0.99795458 10.88341083 1.51465904 12.93648428 3 16 C3.66 15.67 4.32 15.34 5 15 C5 15.66 5 16.32 5 17 C5.66 17 6.32 17 7 17 C7 16.01 7 15.02 7 14 C7.66 14 8.32 14 9 14 C8.95875 12.72125 8.9175 11.4425 8.875 10.125 C8.8046875 7.9453125 8.8046875 7.9453125 9 6 C9.66 5.34 10.32 4.68 11 4 C11.02578125 4.65226562 11.0515625 5.30453125 11.078125 5.9765625 C11.44942594 11.69797251 11.84276328 15.74608335 16 20 C25.67039503 25.9247192 34.82094222 28.1294996 46 29 C46.33 28.34 46.66 27.68 47 27 C48 28 48 28 48.125 30.9375 C48 34 48 34 47 36 C46.01 36 45.02 36 44 36 C43.34 35.01 42.68 34.02 42 33 C39.11788698 32.03929566 37.30149956 31.89418117 34.3125 31.9375 C33.50425781 31.94652344 32.69601563 31.95554687 31.86328125 31.96484375 C31.24839844 31.97644531 30.63351563 31.98804687 30 32 C30.495 34.475 30.495 34.475 31 37 C35.95 37.33 40.9 37.66 46 38 C46 38.33 46 38.66 46 39 C44.2709226 39.02725341 42.54171824 39.04650987 40.8125 39.0625 C39.84957031 39.07410156 38.88664062 39.08570313 37.89453125 39.09765625 C35 39 35 39 32.94458008 38.50219727 C28.6285623 37.7661017 24.36267563 37.8576463 19.9921875 37.8671875 C19.02975128 37.86623077 18.06731506 37.86527405 17.07571411 37.86428833 C15.04673192 37.86360932 13.01774752 37.86544412 10.98876953 37.86962891 C7.87918241 37.87499279 4.76973896 37.86966845 1.66015625 37.86328125 C-0.31250032 37.86394185 -2.2851568 37.86522264 -4.2578125 37.8671875 C-5.18908966 37.86516327 -6.12036682 37.86313904 -7.0798645 37.86105347 C-7.94441254 37.86420563 -8.80896057 37.86735779 -9.69970703 37.87060547 C-10.45961945 37.87140106 -11.21953186 37.87219666 -12.00247192 37.87301636 C-14.20951009 37.92794556 -14.20951009 37.92794556 -17 39 C-19.1875 38.5625 -19.1875 38.5625 -21 38 C-17.24336832 35.49557888 -14.18991875 35.65114563 -9.83203125 35.5859375 C-9.03721848 35.56657135 -8.2424057 35.5472052 -7.42350769 35.5272522 C-4.88661405 35.46750558 -2.34967491 35.42109117 0.1875 35.375 C1.90822284 35.33681565 3.62892665 35.29776365 5.34960938 35.2578125 C9.56625165 35.16180821 13.7829834 35.07775924 18 35 C16.98570923 34.41774658 16.98570923 34.41774658 15.95092773 33.82373047 C15.05833252 33.30182129 14.1657373 32.77991211 13.24609375 32.2421875 C12.3636499 31.73026855 11.48120605 31.21834961 10.57202148 30.69091797 C4.17177812 26.48322119 -0.39005693 20.53746071 -2 13 C-2.54244204 8.28425387 -2.14660311 4.29320622 0 0 Z " fill="#E19A4A" transform="translate(34,18)"/>
<path d="M0 0 C0.66 0 1.32 0 2 0 C2 14.52 2 29.04 2 44 C1.67 44 1.34 44 1 44 C0.505 41.03 0.505 41.03 0 38 C-0.33 38.33 -0.66 38.66 -1 39 C-2.8718094 39.09386381 -4.7471806 39.11743804 -6.62133789 39.11352539 C-7.8393811 39.11340454 -9.05742432 39.11328369 -10.31237793 39.11315918 C-11.60276978 39.10804321 -12.89316162 39.10292725 -14.22265625 39.09765625 C-15.40114136 39.09664917 -16.57962646 39.09564209 -17.79382324 39.09460449 C-22.21672532 39.08935316 -26.63961359 39.07539205 -31.0625 39.0625 C-40.941875 39.041875 -50.82125 39.02125 -61 39 C-61.33 65.07 -61.66 91.14 -62 118 C-61.34 118 -60.68 118 -60 118 C-60 119.65 -60 121.3 -60 123 C-64.32998145 117.91697829 -64.14206568 112.81292124 -64.03759766 106.37988281 C-64.02959641 105.62973404 -64.02159515 104.87958527 -64.01335144 104.10670471 C-63.98557409 101.63874817 -63.9500657 99.17097423 -63.9140625 96.703125 C-63.89228578 94.98631184 -63.87083656 93.26949451 -63.84970093 91.55267334 C-63.80428099 87.96165523 -63.75505972 84.37071479 -63.703125 80.77978516 C-63.63669847 76.16717214 -63.57950826 71.55449904 -63.52509499 66.9417305 C-63.48236019 63.40050142 -63.43491213 59.8593478 -63.38599777 56.31819916 C-63.36304091 54.61648171 -63.34153872 52.91474402 -63.32149124 51.21298981 C-63.29283681 48.84274308 -63.25788775 46.47267304 -63.22119141 44.10253906 C-63.2138649 43.3939827 -63.20653839 42.68542633 -63.19898987 41.95539856 C-63.11428316 37.11428316 -63.11428316 37.11428316 -62 36 C-60.06693502 35.90603943 -58.13041162 35.88256483 -56.19506836 35.88647461 C-54.95385727 35.88655014 -53.71264618 35.88662567 -52.43382263 35.88670349 C-51.0691626 35.89181089 -49.70450298 35.8970269 -48.33984375 35.90234375 C-46.95121817 35.904208 -45.56259193 35.90563187 -44.17396545 35.90663147 C-40.51278885 35.91045613 -36.8516517 35.92028597 -33.19049072 35.93133545 C-29.45707737 35.94155068 -25.72365766 35.94612933 -21.99023438 35.95117188 C-14.66013823 35.96190829 -7.33007464 35.97898409 0 36 C0 34.02 0 32.04 0 30 C-1.19270256 30.00666183 -1.19270256 30.00666183 -2.40950012 30.01345825 C-9.89907596 30.053515 -17.38859993 30.0839742 -24.87825489 30.10362434 C-28.72886025 30.11406625 -32.57937718 30.12823279 -36.42993164 30.15087891 C-40.14520323 30.17259291 -43.86038969 30.18456556 -47.57571983 30.18975449 C-48.99391711 30.19345285 -50.41210968 30.20067475 -51.83027077 30.21146011 C-53.81494233 30.22595502 -55.79969935 30.22681675 -57.78442383 30.22705078 C-59.47986076 30.23371262 -59.47986076 30.23371262 -61.20954895 30.24050903 C-64 30 -64 30 -67 28 C-44.89 28 -22.78 28 0 28 C0 18.76 0 9.52 0 0 Z " fill="#E3AA89" transform="translate(83,58)"/>
<path d="M0 0 C0.66 0.66 1.32 1.32 2 2 C4.06874034 2.6425235 4.06874034 2.6425235 6 3 C6.33 4.65 6.66 6.3 7 8 C7.99 8 8.98 8 10 8 C12.7435185 10.47303076 13.00457071 12.04301843 13.3984375 15.75 C13.4063666 17.16666602 13.39809511 18.58350005 13.375 20 C13.38660156 20.7115625 13.39820313 21.423125 13.41015625 22.15625 C13.38650455 26.38202025 13.00862874 28.94361525 10 32 C9.71125 31.360625 9.4225 30.72125 9.125 30.0625 C8.17176549 27.84793921 8.17176549 27.84793921 6 27 C6.03480469 26.33613281 6.06960937 25.67226563 6.10546875 24.98828125 C6.42164022 17.94794579 6.42164022 17.94794579 3 12 C0.91466367 11.12177688 0.91466367 11.12177688 -1 11 C-1 10.01 -1 9.02 -1 8 C-4.63 8 -8.26 8 -12 8 C-12 8.66 -12 9.32 -12 10 C-13.8125 10.6875 -13.8125 10.6875 -16 11 C-17.75 9.6875 -17.75 9.6875 -19 8 C-19 7.34 -19 6.68 -19 6 C-19.66 5.67 -20.32 5.34 -21 5 C-14.12420406 0.82381158 -8.11661045 -1.33867707 0 0 Z " fill="#E0B00E" transform="translate(130,7)"/>
<path d="M0 0 C0.33 0 0.66 0 1 0 C1 29.37 1 58.74 1 89 C18.82 89 36.64 89 55 89 C55 89.33 55 89.66 55 90 C42.79122064 90.86254406 30.65094577 91.1490321 18.4140625 91.1328125 C16.57815539 91.13348902 14.74224836 91.13446191 12.90634155 91.13571167 C9.08598973 91.13717305 5.26566154 91.13508543 1.4453125 91.13037109 C-3.39395728 91.12468297 -8.23317145 91.1279571 -13.07243919 91.13394356 C-16.85623576 91.1375987 -20.64001968 91.13638801 -24.42381668 91.13381577 C-26.20557283 91.13315968 -27.98733023 91.13392738 -29.76908493 91.13629532 C-39.05909425 91.14593616 -48.33386725 91.02787836 -57.61572266 90.61669922 C-58.42871008 90.58635653 -59.2416975 90.55601383 -60.07932091 90.52475166 C-65.76454308 90.23545692 -65.76454308 90.23545692 -68 88 C-66.02 87.505 -66.02 87.505 -64 87 C-64 87.33 -64 87.66 -64 88 C-32.32 88.495 -32.32 88.495 0 89 C0 59.63 0 30.26 0 0 Z " fill="#EBAD85" transform="translate(95,96)"/>
<path d="M0 0 C8.0201092 3.69622424 12.10018687 10.36925541 16.15917969 17.93652344 C18.13669625 21.61196959 20.29499554 24.82116993 23 28 C22.01 28.66 21.02 29.32 20 30 C16.98808601 28.25626032 15.27495717 26.88152096 14.22265625 23.5078125 C13.73785796 21.00950892 13.32273671 18.52409009 13 16 C11.35 16.33 9.7 16.66 8 17 C7.34 18.98 6.68 20.96 6 23 C6.99 23.33 7.98 23.66 9 24 C10.62323754 27.75907641 11.23994929 30.92086213 11 35 C9.11626808 32.17440212 7.79745062 29.45035413 6.375 26.375 C2.80402022 19.22437302 -1.43973798 12.1054706 -9.125 8.9375 C-12.6135279 8.09350132 -15.43561057 7.73267079 -19 8 C-18.34 7.34 -17.68 6.68 -17 6 C-14.3203125 6.0234375 -14.3203125 6.0234375 -11.125 6.375 C-7.69668967 6.73720478 -4.45479612 7 -1 7 C-1 5.68 -1 4.36 -1 3 C-0.34 3 0.32 3 1 3 C0.67 2.01 0.34 1.02 0 0 Z " fill="#DEB629" transform="translate(69,10)"/>
<path d="M0 0 C0.33 0 0.66 0 1 0 C1 29.37 1 58.74 1 89 C-16.49 89 -33.98 89 -52 89 C-52 88.67 -52 88.34 -52 88 C-47.95148641 87.85300878 -43.9028277 87.71094223 -39.85400391 87.57275391 C-37.82836667 87.50270982 -35.80285159 87.42915979 -33.77734375 87.35546875 C-25.99966952 87.08595011 -18.23603747 86.970133 -10.45410156 86.98632812 C-9.53960236 86.98731506 -8.62510315 86.988302 -7.68289185 86.98931885 C-5.4552578 86.99186659 -3.22763068 86.99544406 -1 87 C-1.00222061 85.92480606 -1.00444122 84.84961212 -1.00672913 83.74183655 C-1.0269599 73.63215799 -1.04197183 63.52248352 -1.05181217 53.41278934 C-1.05704116 48.21471885 -1.0641391 43.01666464 -1.07543945 37.81860352 C-1.08626776 32.80657732 -1.09227671 27.79456682 -1.09487724 22.78252983 C-1.09673159 20.86587718 -1.1003524 18.94922543 -1.10573006 17.03257942 C-1.11293975 14.35771928 -1.11399097 11.68292486 -1.11352539 9.00805664 C-1.11712067 8.2074884 -1.12071594 7.40692017 -1.12442017 6.58209229 C-1.11405216 1.11405216 -1.11405216 1.11405216 0 0 Z " fill="#B52027" transform="translate(82,96)"/>
<path d="M0 0 C1.64880409 0.02997826 1.64880409 0.02997826 3.33091736 0.06056213 C4.57212845 0.08065842 5.81333954 0.1007547 7.09216309 0.12145996 C8.45682486 0.14866042 9.82148445 0.1759712 11.18614197 0.2033844 C12.57476041 0.22767578 13.96338674 0.25151982 15.35202026 0.27493286 C19.01326971 0.3378717 22.67438005 0.40691031 26.335495 0.47718811 C30.06884914 0.54778333 33.80230219 0.61265294 37.53575134 0.67799377 C44.86593882 0.80713233 52.19598885 0.94271024 59.52598572 1.08229065 C59.19598572 1.74229065 58.86598572 2.40229065 58.52598572 3.08229065 C38.72598572 3.08229065 18.92598572 3.08229065 -1.47401428 3.08229065 C-1.80401428 29.15229065 -2.13401428 55.22229065 -2.47401428 82.08229065 C-1.81401428 82.08229065 -1.15401428 82.08229065 -0.47401428 82.08229065 C-0.47401428 83.73229065 -0.47401428 85.38229065 -0.47401428 87.08229065 C-4.80399574 81.99926894 -4.61607997 76.89521189 -4.51161194 70.46217346 C-4.50361069 69.71202469 -4.49560944 68.96187592 -4.48736572 68.18899536 C-4.45958838 65.72103882 -4.42407999 63.25326488 -4.38807678 60.78541565 C-4.36630006 59.06860249 -4.34485084 57.35178516 -4.32371521 55.63496399 C-4.27829527 52.04394588 -4.229074 48.45300544 -4.17713928 44.86207581 C-4.11071276 40.24946279 -4.05352254 35.63678969 -3.99910927 31.02402115 C-3.95637447 27.48279207 -3.90892641 23.94163845 -3.86001205 20.40048981 C-3.83705519 18.69877236 -3.815553 16.99703467 -3.79550552 15.29528046 C-3.76685109 12.92503373 -3.73190203 10.55496369 -3.69520569 8.18482971 C-3.68787918 7.47627335 -3.68055267 6.76771698 -3.67300415 6.03768921 C-3.56943797 0.11872663 -3.56943797 0.11872663 0 0 Z " fill="#CE6B75" transform="translate(23.474014282226563,93.91770935058594)"/>
<path d="M0 0 C0.99 0 1.98 0 3 0 C1.49637741 3.78716158 -0.05487001 7.55245187 -1.625 11.3125 C-2.07101563 12.38113281 -2.51703125 13.44976562 -2.9765625 14.55078125 C-3.48316406 15.76314453 -3.48316406 15.76314453 -4 17 C3.8276547 16.02868518 11.2876506 14.86614223 18.79296875 12.390625 C21 12 21 12 24 14 C23.67 14.66 23.34 15.32 23 16 C21.34385343 16.38218767 19.67542976 16.71395102 18 17 C17.34 17.33 16.68 17.66 16 18 C13.62597499 18.07116382 11.24999323 18.08409085 8.875 18.0625 C7.59367187 18.05347656 6.31234375 18.04445313 4.9921875 18.03515625 C4.00476563 18.02355469 3.01734375 18.01195313 2 18 C1.67 19.65 1.34 21.3 1 23 C-0.134375 23.12375 -1.26875 23.2475 -2.4375 23.375 C-4.2009375 23.684375 -4.2009375 23.684375 -6 24 C-6.33 24.66 -6.66 25.32 -7 26 C-6.34 25.67 -5.68 25.34 -5 25 C-2.11629667 24.92805131 0.74239664 24.90708292 3.625 24.9375 C4.42679688 24.94201172 5.22859375 24.94652344 6.0546875 24.95117188 C8.03649006 24.96296832 10.01825433 24.98090395 12 25 C12 25.33 12 25.66 12 26 C9.58374679 26.33659249 7.16707192 26.66938388 4.75 27 C4.06808594 27.09539063 3.38617188 27.19078125 2.68359375 27.2890625 C-0.59371988 27.7345226 -3.68384153 28 -7 28 C-7 37.24 -7 46.48 -7 56 C-7.33 56 -7.66 56 -8 56 C-8.19235797 50.92836426 -8.37106479 45.8565011 -8.53710938 40.78393555 C-8.59552576 39.0582183 -8.65767766 37.3326233 -8.72363281 35.60717773 C-8.81776434 33.12766782 -8.89847386 30.6480293 -8.9765625 28.16796875 C-9.00875885 27.39599655 -9.0409552 26.62402435 -9.0741272 25.82865906 C-9.18216648 21.96958553 -9.19852515 20.29778773 -7 17 C-6.7525 15.453125 -6.7525 15.453125 -6.5 13.875 C-6.335 12.92625 -6.17 11.9775 -6 11 C-5.34 10.67 -4.68 10.34 -4 10 C-3.31527335 8.11235097 -3.31527335 8.11235097 -2.875 5.9375 C-2.62363281 4.83728516 -2.62363281 4.83728516 -2.3671875 3.71484375 C-2.24601562 3.14894531 -2.12484375 2.58304688 -2 2 C-1.34 2 -0.68 2 0 2 C0 1.34 0 0.68 0 0 Z " fill="#E8AD25" transform="translate(103,30)"/>
<path d="M0 0 C0 0.66 0 1.32 0 2 C2.64738916 3.4606285 3.89448334 4 7 4 C7 3.34 7 2.68 7 2 C10.63 2 14.26 2 18 2 C18 2.99 18 3.98 18 5 C17.02160156 5.03867187 17.02160156 5.03867187 16.0234375 5.078125 C9.24842557 5.51780129 5.08590881 6.68655874 0.3046875 11.8203125 C-1.172451 13.51730417 -2.60318449 15.23664426 -4 17 C-5 15 -5 15 -5 11 C-5.99 11.495 -5.99 11.495 -7 12 C-6.625 10.0625 -6.625 10.0625 -6 8 C-5.34 7.67 -4.68 7.34 -4 7 C-3.34444881 4.47266765 -3.34444881 4.47266765 -3 2 C-7.11897728 5.13400445 -9.33129895 6.99389686 -11 12 C-11.99 12.495 -11.99 12.495 -13 13 C-13.65213292 15.02463255 -13.65213292 15.02463255 -14 17 C-13.34 17.33 -12.68 17.66 -12 18 C-13.32 18 -14.64 18 -16 18 C-16.33 19.65 -16.66 21.3 -17 23 C-17.99 23 -18.98 23 -20 23 C-19.4100688 18.72103235 -17.88902648 15.69592455 -15.6875 12 C-15.09324219 10.989375 -14.49898438 9.97875 -13.88671875 8.9375 C-6.70974808 -2.23658269 -6.70974808 -2.23658269 0 0 Z " fill="#E2B82D" transform="translate(111,13)"/>
<path d="M0 0 C0.84611197 2.6440999 0.98877428 4.61741467 0.9375 7.4375 C0.99795458 10.88341083 1.51465904 12.93648428 3 16 C3.66 15.67 4.32 15.34 5 15 C5 15.66 5 16.32 5 17 C5.66 17 6.32 17 7 17 C7 16.01 7 15.02 7 14 C7.66 14 8.32 14 9 14 C8.95875 12.72125 8.9175 11.4425 8.875 10.125 C8.8046875 7.9453125 8.8046875 7.9453125 9 6 C9.66 5.34 10.32 4.68 11 4 C11.03867187 4.97839844 11.03867187 4.97839844 11.078125 5.9765625 C11.44972978 11.70265437 12.01135015 15.59149228 16 20 C18.27568348 21.5627011 20.51880346 22.75940173 23 24 C23 24.33 23 24.66 23 25 C22.16855469 24.9278125 21.33710937 24.855625 20.48046875 24.78125 C18.85044922 24.64203125 18.85044922 24.64203125 17.1875 24.5 C15.56908203 24.36078125 15.56908203 24.36078125 13.91796875 24.21875 C10.98909189 23.96262162 10.98909189 23.96262162 8 24 C8 24.66 8 25.32 8 26 C8.804375 26.474375 9.60875 26.94875 10.4375 27.4375 C13 29 13 29 14 32 C7.43859725 29.8281071 3.17602677 24.85488187 -0.1796875 18.91015625 C-2.510681 13.30467187 -2.94130324 7.82390973 -1 2 C-0.67 1.34 -0.34 0.68 0 0 Z " fill="#E4BD3C" transform="translate(34,18)"/>
<path d="M0 0 C-6.63376196 2.51062376 -12.95364538 2.60114974 -20 3 C-20 11.58 -20 20.16 -20 29 C1.78 29 23.56 29 46 29 C46 29.66 46 30.32 46 31 C38.74219878 32.17150378 31.64865187 32.03766657 24.3125 31.87890625 C23.01425293 31.85529526 21.71600586 31.83168427 20.37841797 31.80735779 C16.95234215 31.74498438 13.52643793 31.67578947 10.1005249 31.60510254 C6.59443895 31.53399262 3.08823359 31.46936982 -0.41796875 31.40429688 C-7.27881302 31.27649286 -14.13932268 31.13797773 -21 31 C-21 21.43 -21 11.86 -21 2 C-17.90625 1.484375 -14.8125 0.96875 -11.625 0.4375 C-10.65127441 0.2717749 -9.67754883 0.1060498 -8.67431641 -0.06469727 C-7.90780762 -0.18901123 -7.14129883 -0.3133252 -6.3515625 -0.44140625 C-5.56604004 -0.57232666 -4.78051758 -0.70324707 -3.97119141 -0.83813477 C-2 -1 -2 -1 0 0 Z " fill="#B63F43" transform="translate(117,56)"/>
<path d="M0 0 C2.16147703 1.08073852 3.41039672 2.19363264 5 4 C5 4.66 5 5.32 5 6 C4.0925 6.28875 3.185 6.5775 2.25 6.875 C-0.83749693 7.83854765 -0.83749693 7.83854765 -2.87792969 9.04443359 C-5.42651616 10.19205985 -7.41452743 10.31678584 -10.203125 10.4140625 C-11.1828125 10.45273437 -12.1625 10.49140625 -13.171875 10.53125 C-14.69554688 10.57765625 -14.69554688 10.57765625 -16.25 10.625 C-17.28125 10.66367187 -18.3125 10.70234375 -19.375 10.7421875 C-21.9164894 10.83631674 -24.45797433 10.92194979 -27 11 C-26.67 10.01 -26.34 9.02 -26 8 C-24.8553125 8.1546875 -24.8553125 8.1546875 -23.6875 8.3125 C-22.800625 8.209375 -21.91375 8.10625 -21 8 C-20.60425781 7.18273438 -20.20851563 6.36546875 -19.80078125 5.5234375 C-18 3 -18 3 -14.53125 2.36328125 C-13.18802097 2.32221606 -11.84384137 2.30610076 -10.5 2.3125 C-4.96968195 2.33136916 -4.96968195 2.33136916 0 0 Z " fill="#E1AF0F" transform="translate(123,45)"/>
<path d="M0 0 C1.2065625 0.0309375 1.2065625 0.0309375 2.4375 0.0625 C3.75376692 3.68223402 4.4375 6.15817131 4.4375 10.0625 C5.4275 10.3925 6.4175 10.7225 7.4375 11.0625 C7.4375 11.7225 7.4375 12.3825 7.4375 13.0625 C9.0875 13.0625 10.7375 13.0625 12.4375 13.0625 C10.7875 14.7125 9.1375 16.3625 7.4375 18.0625 C6.7775 17.4025 6.1175 16.7425 5.4375 16.0625 C4.7775 18.0425 4.1175 20.0225 3.4375 22.0625 C0.37650024 19.55572025 -0.24852595 17.23388475 -1.125 13.4375 C-1.75984585 10.53947489 -1.75984585 10.53947489 -2.5625 8.0625 C-3.2225 7.7325 -3.8825 7.4025 -4.5625 7.0625 C-3.5234375 0.0859375 -3.5234375 0.0859375 0 0 Z " fill="#E0AF0F" transform="translate(79.5625,25.9375)"/>
<path d="M0 0 C0 2.66053211 -0.19335496 4.49940039 -1 7 C-1.66 7.66 -2.32 8.32 -3 9 C-2.34 9.33 -1.68 9.66 -1 10 C-1.1875 12.875 -1.1875 12.875 -2 16 C-4.5625 17.375 -4.5625 17.375 -7 18 C-7 19.65 -7 21.3 -7 23 C-7.66 23.33 -8.32 23.66 -9 24 C-9 23.34 -9 22.68 -9 22 C-9.5775 22.33 -10.155 22.66 -10.75 23 C-13 24 -13 24 -17 24 C-17 23.34 -17 22.68 -17 22 C-16.01 22 -15.02 22 -14 22 C-13.87625 21.195625 -13.7525 20.39125 -13.625 19.5625 C-13.315625 18.2940625 -13.315625 18.2940625 -13 17 C-12.34 16.67 -11.68 16.34 -11 16 C-10.835 15.175 -10.67 14.35 -10.5 13.5 C-10.335 12.675 -10.17 11.85 -10 11 C-9.34 10.67 -8.68 10.34 -8 10 C-7.690625 9.175 -7.38125 8.35 -7.0625 7.5 C-6.711875 6.675 -6.36125 5.85 -6 5 C-5.01 4.67 -4.02 4.34 -3 4 C-2.67 3.01 -2.34 2.02 -2 1 C-1.34 0.67 -0.68 0.34 0 0 Z " fill="#E0AF0F" transform="translate(108,14)"/>
<path d="M0 0 C4.2742558 1.5830577 6.26531794 4.50568404 9 8 C6.525 7.505 6.525 7.505 4 7 C4 7.66 4 8.32 4 9 C3.01 9 2.02 9 1 9 C1 11.31 1 13.62 1 16 C0.52691406 15.59007812 0.05382812 15.18015625 -0.43359375 14.7578125 C-5.50969779 10.62172773 -9.60816045 9.04639582 -16 8 C-16.99 7.67 -17.98 7.34 -19 7 C-14.00473792 6.08250288 -9.99320351 6.15209752 -5 7 C-3.68 7 -2.36 7 -1 7 C-1 5.68 -1 4.36 -1 3 C-0.34 3 0.32 3 1 3 C0.67 2.01 0.34 1.02 0 0 Z " fill="#E1BB2C" transform="translate(69,10)"/>
<path d="M0 0 C10.88028169 -0.57042254 10.88028169 -0.57042254 15 3 C15 3.66 15 4.32 15 5 C16.65 5 18.3 5 20 5 C20.33 6.32 20.66 7.64 21 9 C19.68 9 18.36 9 17 9 C17 8.34 17 7.68 17 7 C15.2365625 7.0309375 15.2365625 7.0309375 13.4375 7.0625 C9.52586533 7.06947261 5.85502056 6.64250343 2 6 C2 5.34 2 4.68 2 4 C1.01 3.67 0.02 3.34 -1 3 C-0.34 3 0.32 3 1 3 C0.67 2.01 0.34 1.02 0 0 Z " fill="#E3B00A" transform="translate(63,49)"/>
<path d="M0 0 C3.25677898 0.26406316 4.61989153 0.56746278 6.8125 3.0625 C8.40260056 6.99590665 8.27756835 9.7670827 8 14 C7.67 14.66 7.34 15.32 7 16 C7.639375 16.2475 8.27875 16.495 8.9375 16.75 C11 18 11 18 11.75 20.125 C11.87375 21.053125 11.87375 21.053125 12 22 C11.34 22 10.68 22 10 22 C9.67 21.34 9.34 20.68 9 20 C8.34 20.33 7.68 20.66 7 21 C6.01 21 5.02 21 4 21 C2.7934375 21.7734375 2.7934375 21.7734375 1.5625 22.5625 C-1 24 -1 24 -3.3125 23.6875 C-3.869375 23.460625 -4.42625 23.23375 -5 23 C-4.071875 22.443125 -3.14375 21.88625 -2.1875 21.3125 C1.10187 18.92609432 2.50576496 17.73558759 4 14 C4.70647215 9.21168879 4.68725264 6.05235561 2 1.9375 C1.34 1.298125 0.68 0.65875 0 0 Z " fill="#DFAF20" transform="translate(129,18)"/>
<path d="M0 0 C0.88751953 0.19916016 0.88751953 0.19916016 1.79296875 0.40234375 C5.85446525 1.31005178 9.91374171 2.2091113 14 3 C13.505 3.763125 13.01 4.52625 12.5 5.3125 C10.75631692 7.92363751 10.75631692 7.92363751 11 11 C4.25 9.375 4.25 9.375 2 6 C-0.05003955 4.80767387 -0.05003955 4.80767387 -2 4 C-1.34 2.68 -0.68 1.36 0 0 Z " fill="#DFB010" transform="translate(43,40)"/>
<path d="M0 0 C-2.31 1.32 -4.62 2.64 -7 4 C4.55 4.33 16.1 4.66 28 5 C28 5.33 28 5.66 28 6 C13.48 6 -1.04 6 -16 6 C-11 2 -11 2 -8.1875 1.75 C-7.465625 1.8325 -6.74375 1.915 -6 2 C-6 1.34 -6 0.68 -6 0 C-3.50907189 -1.24546405 -2.58919267 -0.7767578 0 0 Z " fill="#E48487" transform="translate(134,49)"/>
<path d="M0 0 C0 0.99 0 1.98 0 3 C-0.33 2.34 -0.66 1.68 -1 1 C-3.32156597 0.59270772 -5.6568787 0.25561323 -8 0 C-8 -0.33 -8 -0.66 -8 -1 C-15.32585993 -1.71510563 -20.24138867 -0.40756759 -26.75 3.00390625 C-27.4925 3.33261719 -28.235 3.66132813 -29 4 C-29.66 3.67 -30.32 3.34 -31 3 C-20.2416448 -5.17634995 -12.12074682 -5.56362149 0 0 Z " fill="#EED97F" transform="translate(137,9)"/>
<path d="M0 0 C1 3 1 3 0.1875 5.625 C-1 8 -1 8 -3 9 C-3.65213292 11.02463255 -3.65213292 11.02463255 -4 13 C-3.34 13.33 -2.68 13.66 -2 14 C-3.32 14 -4.64 14 -6 14 C-6.33 15.65 -6.66 17.3 -7 19 C-7.99 19 -8.98 19 -10 19 C-9.41218645 14.64373792 -7.80652583 11.56809417 -5.5625 7.8125 C-4.94503906 6.76707031 -4.32757813 5.72164062 -3.69140625 4.64453125 C-2 2 -2 2 0 0 Z " fill="#E4BE46" transform="translate(101,17)"/>
<path d="M0 0 C-0.99 0.66 -1.98 1.32 -3 2 C-3.33 1.67 -3.66 1.34 -4 1 C-11.19913298 -0.90757426 -17.67006822 -1.1766051 -25 0 C-16.71461685 -6.38522296 -8.76411183 -4.54435428 0 0 Z " fill="#E8CD69" transform="translate(69,9)"/>
<path d="M0 0 C0.721875 0.37125 1.44375 0.7425 2.1875 1.125 C1.8575 1.785 1.5275 2.445 1.1875 3.125 C-0.46864657 3.50718767 -2.13707024 3.83895102 -3.8125 4.125 C-4.8025 4.62 -4.8025 4.62 -5.8125 5.125 C-7.18798156 5.20808638 -8.56735796 5.23236016 -9.9453125 5.22265625 C-10.75097656 5.21943359 -11.55664062 5.21621094 -12.38671875 5.21289062 C-13.22847656 5.20451172 -14.07023437 5.19613281 -14.9375 5.1875 C-15.78699219 5.18298828 -16.63648437 5.17847656 -17.51171875 5.17382812 C-19.61200909 5.16202874 -21.7122633 5.14409306 -23.8125 5.125 C-23.8125 4.795 -23.8125 4.465 -23.8125 4.125 C-22.71550781 3.93164062 -21.61851563 3.73828125 -20.48828125 3.5390625 C-19.03380418 3.27631825 -17.57937983 3.01328199 -16.125 2.75 C-15.40376953 2.62367187 -14.68253906 2.49734375 -13.93945312 2.3671875 C-10.76873303 1.78806054 -7.96756337 1.18804774 -4.96875 -0.03125 C-2.8125 -0.875 -2.8125 -0.875 0 0 Z " fill="#E8CA61" transform="translate(124.8125,42.875)"/>
<path d="M0 0 C1.47968324 0.14049518 2.95874516 0.28754826 4.4375 0.4375 C5.67306641 0.55931641 5.67306641 0.55931641 6.93359375 0.68359375 C9 1 9 1 10 2 C12.32817964 2.36760731 14.6618385 2.70241581 17 3 C17 3.66 17 4.32 17 5 C21.95 5.33 26.9 5.66 32 6 C32 6.33 32 6.66 32 7 C21.0303513 7.61575991 9.73805398 6.32386719 0 1 C0 0.67 0 0.34 0 0 Z " fill="#F2A232" transform="translate(48,50)"/>
<path d="M0 0 C0.82242188 0.20496094 1.64484375 0.40992188 2.4921875 0.62109375 C9.33104455 2.27158004 15.97675688 3.54023916 23 4 C23.33 3.34 23.66 2.68 24 2 C24.33 3.32 24.66 4.64 25 6 C16.24034738 5.45520982 7.65437017 4.45892001 -1 3 C-0.67 2.01 -0.34 1.02 0 0 Z " fill="#EACE6F" transform="translate(57,43)"/>
<path d="M0 0 C3.63 0 7.26 0 11 0 C11 0.99 11 1.98 11 3 C10.03900391 3.03867187 10.03900391 3.03867187 9.05859375 3.078125 C2.9410516 3.4792753 -0.9125022 4.57146888 -6 8 C-6 6.68 -6 5.36 -6 4 C-3 2 -3 2 0 2 C0 1.34 0 0.68 0 0 Z " fill="#E3C964" transform="translate(118,15)"/>
<path d="M0 0 C2.48524811 2.26063385 3.98928458 4.54097413 5.5625 7.5 C6.95711368 10.10675454 8.35591995 12.53387992 10 15 C9.01 15.33 8.02 15.66 7 16 C4.22605126 14.44388242 2.4405962 13.09924255 1.234375 10.08984375 C0.31543295 6.57817235 0 3.66830162 0 0 Z " fill="#E6C65C" transform="translate(82,24)"/>
<path d="M0 0 C0.99 0 1.98 0 3 0 C1.75368556 3.84280285 0.63951308 6.07319896 -3 8 C-5.25 7.6875 -5.25 7.6875 -7 7 C-6.67 5.35 -6.34 3.7 -6 2 C-2.25 0.875 -2.25 0.875 0 2 C0 1.34 0 0.68 0 0 Z " fill="#C44054" transform="translate(155,177)"/>
<path d="M0 0 C12.66970387 0.96355353 12.66970387 0.96355353 18 2 C17.67 3.65 17.34 5.3 17 7 C16.01 7 15.02 7 14 7 C13.34 6.01 12.68 5.02 12 4 C9.12240932 3.19663887 9.12240932 3.19663887 5.875 2.8125 C4.23144531 2.57466797 4.23144531 2.57466797 2.5546875 2.33203125 C1.71164063 2.22246094 0.86859375 2.11289062 0 2 C0 1.34 0 0.68 0 0 Z " fill="#DBAF1E" transform="translate(64,47)"/>
<path d="M0 0 C0.66 0 1.32 0 2 0 C1.67 1.32 1.34 2.64 1 4 C1.99 4.33 2.98 4.66 4 5 C3.67 6.32 3.34 7.64 3 9 C1.35 8.67 -0.3 8.34 -2 8 C-2.33 6.02 -2.66 4.04 -3 2 C-2.01 2 -1.02 2 0 2 C0 1.34 0 0.68 0 0 Z " fill="#E4AF0D" transform="translate(73,17)"/>
<path d="M0 0 C2 0 2 0 3.625 1.25 C5 3 5 3 5 7 C5.99 7.33 6.98 7.66 8 8 C9.62323754 11.75907641 10.23994929 14.92086213 10 19 C8.06088714 16.09133071 6.54812881 13.19359052 5 10.0625 C4.484375 9.02222656 3.96875 7.98195313 3.4375 6.91015625 C2.963125 5.94980469 2.48875 4.98945313 2 4 C1.33420952 2.66622893 0.66795088 1.33269045 0 0 Z " fill="#E7CB6D" transform="translate(70,26)"/>
<path d="M0 0 C0.99 0 1.98 0 3 0 C1.49637741 3.78716158 -0.05487001 7.55245187 -1.625 11.3125 C-2.07101563 12.38113281 -2.51703125 13.44976562 -2.9765625 14.55078125 C-3.31429687 15.35902344 -3.65203125 16.16726562 -4 17 C-5.21977789 13.0056569 -4.4395743 10.91884115 -3 7 C-2.63893903 5.33911955 -2.29537827 3.67381019 -2 2 C-1.34 2 -0.68 2 0 2 C0 1.34 0 0.68 0 0 Z " fill="#E8CA68" transform="translate(103,30)"/>
<path d="M0 0 C0.66 0.66 1.32 1.32 2 2 C1.625 5.625 1.625 5.625 1 9 C0.01 8.67 -0.98 8.34 -2 8 C-2.66 8.66 -3.32 9.32 -4 10 C-5.125 6.25 -5.125 6.25 -4 4 C-3.01 3.67 -2.02 3.34 -1 3 C-0.67 2.01 -0.34 1.02 0 0 Z " fill="#DFB20C" transform="translate(40,26)"/>
<path d="M0 0 C0.33 0.66 0.66 1.32 1 2 C1.66 2.33 2.32 2.66 3 3 C2.01 3.66 1.02 4.32 0 5 C-0.50621513 7.02276681 -0.50621513 7.02276681 -0.51171875 9.3515625 C-0.54716797 10.20234375 -0.58261719 11.053125 -0.61914062 11.9296875 C-0.64169922 12.81914063 -0.66425781 13.70859375 -0.6875 14.625 C-0.72166016 15.5221875 -0.75582031 16.419375 -0.79101562 17.34375 C-0.87362402 19.56237538 -0.94272719 21.7805994 -1 24 C-1.33 24 -1.66 24 -2 24 C-2.05802698 20.56257082 -2.09360486 17.12526747 -2.125 13.6875 C-2.14175781 12.71103516 -2.15851562 11.73457031 -2.17578125 10.72851562 C-2.18222656 9.79072266 -2.18867188 8.85292969 -2.1953125 7.88671875 C-2.20578613 7.02264404 -2.21625977 6.15856934 -2.22705078 5.26831055 C-2 3 -2 3 0 0 Z " fill="#D2727F" transform="translate(12,57)"/>
<path d="M0 0 C1.875 0.25 1.875 0.25 4 1 C4.66666667 2.33333333 5.33333333 3.66666667 6 5 C7.65948148 6.01187895 9.32580562 7.0126546 11 8 C11.33 8.99 11.66 9.98 12 11 C6.41133327 9.6451717 3.34726118 5.38906005 0 1 C0 0.67 0 0.34 0 0 Z " fill="#E6CB6F" transform="translate(36,39)"/>
<path d="M0 0 C0.33 0 0.66 0 1 0 C1.06058594 0.67546875 1.12117188 1.3509375 1.18359375 2.046875 C1.26738281 2.93890625 1.35117187 3.8309375 1.4375 4.75 C1.55931641 6.07257812 1.55931641 6.07257812 1.68359375 7.421875 C1.96238465 9.69350452 2.38790577 11.79851823 3 14 C1.68 13.67 0.36 13.34 -1 13 C-1.02696365 11.20841511 -1.04637917 9.41671527 -1.0625 7.625 C-1.07410156 6.62726562 -1.08570313 5.62953125 -1.09765625 4.6015625 C-1 2 -1 2 0 0 Z " fill="#EED683" transform="translate(44,22)"/>
<path d="M0 0 C1.0725 0.09796875 2.145 0.1959375 3.25 0.296875 C4.3225 0.38453125 5.395 0.4721875 6.5 0.5625 C9.25 1.046875 9.25 1.046875 11.25 3.046875 C10.92 4.036875 10.59 5.026875 10.25 6.046875 C9.63125 5.5725 9.0125 5.098125 8.375 4.609375 C4.08894324 2.46634662 -0.01600709 2.31344936 -4.75 2.046875 C-2.75 0.046875 -2.75 0.046875 0 0 Z " fill="#EBD479" transform="translate(54.75,15.953125)"/>
<path d="M0 0 C-1.40751221 0.86916887 -2.8264521 1.71985149 -4.25 2.5625 C-5.03890625 3.03816406 -5.8278125 3.51382813 -6.640625 4.00390625 C-9.30844625 5.13022151 -10.34501768 5.0169313 -13 4 C-11 2 -11 2 -8.375 1.875 C-7.59125 1.91625 -6.8075 1.9575 -6 2 C-6 1.34 -6 0.68 -6 0 C-3.50907189 -1.24546405 -2.58919267 -0.7767578 0 0 Z " fill="#E4CA69" transform="translate(134,49)"/>
<path d="M0 0 C1 3 1 3 0.375 5.5625 C-1.33177722 8.58815053 -2.73058318 9.05358987 -6 10 C-4.6302836 6.00499382 -2.74277578 3.19990508 0 0 Z " fill="#E4C85C" transform="translate(101,17)"/>
<path d="M0 0 C4.875 0.875 4.875 0.875 6 2 C6.07271741 4.35313555 6.08370868 6.70833668 6.0625 9.0625 C6.05347656 10.35285156 6.04445312 11.64320312 6.03515625 12.97265625 C6.02355469 13.97167969 6.01195312 14.97070312 6 16 C5.34 16 4.68 16 4 16 C4.04640625 15.26394531 4.0928125 14.52789062 4.140625 13.76953125 C4.46222622 7.46875678 4.46222622 7.46875678 2 1.8125 C1.34 1.214375 0.68 0.61625 0 0 Z " fill="#EBD77B" transform="translate(129,18)"/>
<path d="M0 0 C-2.11386464 2.11386464 -3.79267603 2.97008322 -6.5 4.1875 C-7.2940625 4.55230469 -8.088125 4.91710937 -8.90625 5.29296875 C-9.5971875 5.52628906 -10.288125 5.75960938 -11 6 C-11.66 5.67 -12.32 5.34 -13 5 C-8.68660704 1.42677506 -5.86197356 -0.71487482 0 0 Z " fill="#E3C661" transform="translate(119,7)"/>
<path d="M0 0 C0.66 0.33 1.32 0.66 2 1 C-3.14285714 7.57142857 -3.14285714 7.57142857 -7 9 C-5.64978174 4.58110387 -3.73884332 2.65654657 0 0 Z " fill="#E7CF77" transform="translate(42,9)"/>
<path d="M0 0 C0.33 0.66 0.66 1.32 1 2 C-0.0625 4.5625 -0.0625 4.5625 -2 7 C-5.1875 7.8125 -5.1875 7.8125 -8 8 C-5.33333333 5.33333333 -2.66666667 2.66666667 0 0 Z " fill="#E8CB69" transform="translate(132,34)"/>
<path d="M0 0 C2.97 0.33 5.94 0.66 9 1 C9 1.99 9 2.98 9 4 C5.17902761 3.46930939 2.93828597 2.50298434 0 0 Z " fill="#E4C55F" transform="translate(48,50)"/>
<path d="M0 0 C-1.65 0.33 -3.3 0.66 -5 1 C-5.33 1.99 -5.66 2.98 -6 4 C-7.65 3.67 -9.3 3.34 -11 3 C-10 1 -10 1 -7.1875 -0.1875 C-4.14038924 -0.96421451 -2.86250637 -1.10096399 0 0 Z " fill="#D8AE1C" transform="translate(54,8)"/>
<path d="M0 0 C2.64 0.33 5.28 0.66 8 1 C6.35 2.32 4.7 3.64 3 5 C2.01 3.35 1.02 1.7 0 0 Z " fill="#E8C54D" transform="translate(42,17)"/>
<path d="M0 0 C1.62490954 -0.02698189 3.24994633 -0.04638757 4.875 -0.0625 C5.77992187 -0.07410156 6.68484375 -0.08570313 7.6171875 -0.09765625 C10 0 10 0 12 1 C12 1.66 12 2.32 12 3 C10.68 3 9.36 3 8 3 C8 2.34 8 1.68 8 1 C5.36 1 2.72 1 0 1 C0 0.67 0 0.34 0 0 Z " fill="#E6A219" transform="translate(72,55)"/>
<path d="M0 0 C1.98 1.65 3.96 3.3 6 5 C3 6 3 6 0 5 C0 3.35 0 1.7 0 0 Z " fill="#E4C058" transform="translate(72,12)"/>
<path d="M0 0 C2.475 0.495 2.475 0.495 5 1 C3.625 3 3.625 3 2 5 C1.34 5 0.68 5 0 5 C0 3.35 0 1.7 0 0 Z " fill="#E7C655" transform="translate(134,43)"/>
<path d="M0 0 C3.96 1.98 3.96 1.98 8 4 C8 4.33 8 4.66 8 5 C5.69 4.67 3.38 4.34 1 4 C0.67 2.68 0.34 1.36 0 0 Z " fill="#E6CC65" transform="translate(49,38)"/>
</svg>
